<svg width="38" height="38" viewBox="0 0 38 38" fill="none" xmlns="http://www.w3.org/2000/svg">
<path d="M18.9984 11.6803C17.0567 11.6803 15.1945 12.4517 13.8215 13.8247C12.4484 15.1977 11.6771 17.0599 11.6771 19.0016C11.6771 20.9434 12.4484 22.8056 13.8215 24.1786C15.1945 25.5516 17.0567 26.323 18.9984 26.323C20.9402 26.323 22.8024 25.5516 24.1754 24.1786C25.5484 22.8056 26.3198 20.9434 26.3198 19.0016C26.3198 17.0599 25.5484 15.1977 24.1754 13.8247C22.8024 12.4517 20.9402 11.6803 18.9984 11.6803ZM18.9984 23.7564C17.737 23.7564 16.5272 23.2553 15.6352 22.3633C14.7432 21.4713 14.2421 20.2615 14.2421 19C14.2421 17.7386 14.7432 16.5288 15.6352 15.6368C16.5272 14.7448 17.737 14.2437 18.9984 14.2437C20.2599 14.2437 21.4697 14.7448 22.3617 15.6368C23.2536 16.5288 23.7548 17.7386 23.7548 19C23.7548 20.2615 23.2536 21.4713 22.3617 22.3633C21.4697 23.2553 20.2599 23.7564 18.9984 23.7564Z" fill="white"/>
<path d="M26.6095 13.1179C27.5522 13.1179 28.3163 12.3537 28.3163 11.4111C28.3163 10.4684 27.5522 9.70422 26.6095 9.70422C25.6669 9.70422 24.9027 10.4684 24.9027 11.4111C24.9027 12.3537 25.6669 13.1179 26.6095 13.1179Z" fill="white"/>
<path d="M32.5106 9.67577C32.1441 8.72922 31.5839 7.86963 30.866 7.15203C30.1482 6.43442 29.2884 5.87461 28.3417 5.50843C27.2339 5.09258 26.0635 4.86772 24.8805 4.84343C23.3558 4.77693 22.8728 4.75793 19.0063 4.75793C15.1398 4.75793 14.6443 4.75793 13.1322 4.84343C11.95 4.86648 10.7805 5.09139 9.67417 5.50843C8.72724 5.87419 7.86722 6.43385 7.14929 7.1515C6.43135 7.86916 5.87137 8.72897 5.50526 9.67577C5.08932 10.7835 4.86498 11.9539 4.84184 13.1369C4.77376 14.6601 4.75317 15.143 4.75317 19.0111C4.75317 22.8776 4.75317 23.37 4.84184 24.8853C4.86559 26.0696 5.08884 27.2381 5.50526 28.348C5.8724 29.2945 6.43293 30.1539 7.15103 30.8715C7.86914 31.5891 8.72902 32.1489 9.67576 32.5153C10.78 32.9479 11.95 33.1889 13.1353 33.2278C14.6601 33.2943 15.143 33.3149 19.0095 33.3149C22.876 33.3149 23.3716 33.3149 24.8837 33.2278C26.0666 33.2038 27.2369 32.9795 28.3448 32.5644C29.2913 32.1974 30.1508 31.6371 30.8686 30.9193C31.5864 30.2015 32.1467 29.342 32.5138 28.3955C32.9302 27.2872 33.1534 26.1187 33.1772 24.9344C33.2453 23.4112 33.2658 22.9283 33.2658 19.0602C33.2658 15.1921 33.2658 14.7013 33.1772 13.186C33.1587 11.9863 32.9332 10.7987 32.5106 9.67577ZM30.5821 24.7681C30.5719 25.6806 30.4053 26.5846 30.0897 27.4408C29.8519 28.0565 29.4879 28.6156 29.021 29.0822C28.5542 29.5487 27.9949 29.9124 27.379 30.1499C26.5323 30.4641 25.6379 30.6306 24.7348 30.6423C23.2307 30.7119 22.8063 30.7294 18.9493 30.7294C15.0892 30.7294 14.6949 30.7294 13.1623 30.6423C12.2596 30.6312 11.3657 30.4646 10.5197 30.1499C9.90168 29.9139 9.34009 29.5509 8.87125 29.0842C8.40241 28.6175 8.03675 28.0577 7.79792 27.4408C7.48671 26.5938 7.32025 25.7004 7.30551 24.7982C7.23742 23.294 7.22159 22.8697 7.22159 19.0127C7.22159 15.1541 7.22159 14.7599 7.30551 13.2256C7.31574 12.3136 7.48229 11.4102 7.79792 10.5545C8.28084 9.30527 9.27042 8.32202 10.5197 7.84385C11.3661 7.53057 12.2598 7.36404 13.1623 7.35143C14.668 7.28335 15.0908 7.26435 18.9493 7.26435C22.8079 7.26435 23.2038 7.26435 24.7348 7.35143C25.638 7.3623 26.5325 7.52888 27.379 7.84385C27.9948 8.08178 28.5541 8.44584 29.0209 8.91265C29.4877 9.37946 29.8517 9.93871 30.0897 10.5545C30.4009 11.4015 30.5673 12.2949 30.5821 13.1971C30.6502 14.7029 30.6676 15.1256 30.6676 18.9842C30.6676 22.8412 30.6676 23.256 30.5995 24.7697H30.5821V24.7681Z" fill="white"/>
</svg>
