<svg width="32" height="24" viewBox="0 0 32 24" fill="none" xmlns="http://www.w3.org/2000/svg">
<path d="M27.919 5.92912C27.9396 6.18996 27.9396 6.4493 27.9396 6.70864C27.9396 14.6454 21.5223 23.791 9.79452 23.791C6.18134 23.791 2.82467 22.8058 0 21.0947C0.513001 21.1499 1.007 21.1693 1.54059 21.1693C4.41116 21.1758 7.20045 20.2722 9.45885 18.6042C8.12793 18.5815 6.83776 18.1681 5.76847 17.4218C4.69918 16.6755 3.90417 15.6335 3.49442 14.4412C3.88867 14.4964 4.28451 14.5337 4.69934 14.5337C5.27093 14.5337 5.84568 14.4591 6.37926 14.3295C4.93488 14.0549 3.63609 13.3179 2.70373 12.2438C1.77138 11.1697 1.26302 9.82471 1.26509 8.4376V8.36307C2.11534 8.80873 3.10176 9.08745 4.14676 9.12471C3.27131 8.57709 2.55348 7.83399 2.05729 6.96171C1.56111 6.08944 1.302 5.11511 1.30309 4.12564C1.30309 3.01077 1.61817 1.9883 2.17075 1.09699C3.77331 2.95267 5.77206 4.47078 8.03755 5.55301C10.303 6.63524 12.7847 7.25746 15.3219 7.37936C15.2238 6.93222 15.1636 6.46868 15.1636 6.00365C15.1632 5.21513 15.3279 4.43426 15.6482 3.70569C15.9686 2.97711 16.4384 2.31512 17.0307 1.75755C17.623 1.19999 18.3262 0.757776 19.1002 0.456203C19.8741 0.154631 20.7036 -0.000391071 21.5413 7.40862e-07C23.378 7.40862e-07 25.0357 0.724373 26.201 1.89589C27.6289 1.63598 28.9981 1.14532 30.2481 0.445653C29.7721 1.83301 28.7752 3.00943 27.444 3.75452C28.7103 3.61855 29.9479 3.30507 31.1157 2.82446C30.2435 4.02146 29.1627 5.07112 27.919 5.92912Z" fill="white"/>
</svg>
